<svg xmlns="http://www.w3.org/2000/svg" viewBox="0 0 120 35" width="120" height="35">
	<style>
		tspan { white-space:pre }
	</style>
	<path id="CCI Moldova " fill="#ffffff" aria-label="CCI Moldova"  d="M13.21 11.22L13.21 13.19Q12.27 12.31 11.19 11.87Q10.13 11.44 8.92 11.44Q6.54 11.44 5.28 12.9Q4.02 14.34 4.02 17.09Q4.02 19.83 5.28 21.28Q6.54 22.73 8.92 22.73Q10.13 22.73 11.19 22.29Q12.27 21.86 13.21 20.98L13.21 22.93Q12.23 23.6 11.13 23.94Q10.03 24.27 8.81 24.27Q5.66 24.27 3.85 22.35Q2.04 20.42 2.04 17.09Q2.04 13.75 3.85 11.83Q5.66 9.9 8.81 9.9Q10.05 9.9 11.15 10.23Q12.25 10.56 13.21 11.22ZM26.48 11.22L26.48 13.19Q25.53 12.31 24.46 11.87Q23.39 11.44 22.19 11.44Q19.81 11.44 18.55 12.9Q17.29 14.34 17.29 17.09Q17.29 19.83 18.55 21.28Q19.81 22.73 22.19 22.73Q23.39 22.73 24.46 22.29Q25.53 21.86 26.48 20.98L26.48 22.93Q25.5 23.6 24.39 23.94Q23.3 24.27 22.07 24.27Q18.93 24.27 17.12 22.35Q15.31 20.42 15.31 17.09Q15.31 13.75 17.12 11.83Q18.93 9.9 22.07 9.9Q23.32 9.9 24.41 10.23Q25.52 10.56 26.48 11.22ZM29.38 24L29.38 10.15L31.25 10.15L31.25 24L29.38 24ZM41.02 24L41.02 10.15L43.81 10.15L47.35 19.57L50.9 10.15L53.69 10.15L53.69 24L51.86 24L51.86 11.84L48.29 21.34L46.41 21.34L42.84 11.84L42.84 24L41.02 24ZM61.36 14.81Q59.99 14.81 59.19 15.88Q58.4 16.95 58.4 18.81Q58.4 20.68 59.18 21.75Q59.98 22.82 61.36 22.82Q62.73 22.82 63.53 21.75Q64.32 20.67 64.32 18.81Q64.32 16.97 63.53 15.89Q62.73 14.81 61.36 14.81ZM61.36 13.36Q63.59 13.36 64.86 14.81Q66.13 16.25 66.13 18.81Q66.13 21.37 64.86 22.82Q63.59 24.27 61.36 24.27Q59.13 24.27 57.86 22.82Q56.6 21.37 56.6 18.81Q56.6 16.25 57.86 14.81Q59.13 13.36 61.36 13.36ZM68.96 24L68.96 9.56L70.67 9.56L70.67 24L68.96 24ZM81.08 15.19L81.08 9.56L82.79 9.56L82.79 24L81.08 24L81.08 22.44Q80.54 23.37 79.71 23.82Q78.9 24.27 77.75 24.27Q75.86 24.27 74.68 22.77Q73.5 21.26 73.5 18.81Q73.5 16.36 74.68 14.86Q75.86 13.36 77.75 13.36Q78.9 13.36 79.71 13.81Q80.54 14.26 81.08 15.19ZM75.26 18.81Q75.26 20.7 76.03 21.77Q76.81 22.84 78.17 22.84Q79.52 22.84 80.3 21.77Q81.08 20.7 81.08 18.81Q81.08 16.93 80.3 15.86Q79.52 14.79 78.17 14.79Q76.81 14.79 76.03 15.86Q75.26 16.93 75.26 18.81ZM90.33 14.81Q88.95 14.81 88.16 15.88Q87.36 16.95 87.36 18.81Q87.36 20.68 88.15 21.75Q88.95 22.82 90.33 22.82Q91.69 22.82 92.49 21.75Q93.29 20.67 93.29 18.81Q93.29 16.97 92.49 15.89Q91.69 14.81 90.33 14.81ZM90.33 13.36Q92.55 13.36 93.83 14.81Q95.1 16.25 95.1 18.81Q95.1 21.37 93.83 22.82Q92.55 24.27 90.33 24.27Q88.09 24.27 86.82 22.82Q85.56 21.37 85.56 18.81Q85.56 16.25 86.82 14.81Q88.09 13.36 90.33 13.36ZM100.6 24L96.7 13.61L98.51 13.61L101.76 22.33L105 13.61L106.81 13.61L102.92 24L100.6 24ZM115.59 18.78L113.89 18.78Q111.82 18.78 111.03 19.25Q110.23 19.72 110.23 20.86Q110.23 21.77 110.82 22.31Q111.42 22.84 112.45 22.84Q113.87 22.84 114.73 21.84Q115.59 20.83 115.59 19.16L115.59 18.78ZM117.3 18.07L117.3 24L115.59 24L115.59 22.42Q115.01 23.37 114.13 23.82Q113.26 24.27 112 24.27Q110.4 24.27 109.46 23.38Q108.52 22.48 108.52 20.98Q108.52 19.22 109.69 18.33Q110.87 17.44 113.2 17.44L115.59 17.44L115.59 17.27Q115.59 16.1 114.81 15.46Q114.04 14.81 112.64 14.81Q111.75 14.81 110.9 15.02Q110.06 15.23 109.28 15.66L109.28 14.08Q110.22 13.72 111.1 13.54Q111.98 13.36 112.82 13.36Q115.07 13.36 116.18 14.53Q117.3 15.7 117.3 18.07Z" />
</svg>